:FULLY-SPECIFIED
:FORCE-ALL-JOINTS-BE-3DOF
:DEGREES
408
root 7.15854 13.795 -34.2327 158.65 75.1833 152.765
lfemur 17.4274 -2.90847 -10.5381
ltibia 25.2771 0 0
lfoot -23.4189 33.1563 0.00806943
ltoes -25.3849 0 0
rfemur -65.4877 -15.6049 7.71338
rtibia 77.3649 0 0
rfoot -12.6736 13.263 -0.049926
rtoes 10.1363 0 0
lowerback 8.83966 4.82719 -11.6695
upperback -2.45324 5.04017 -1.18
thorax -8.55217 3.02314 4.40982
lowerneck 0.324865 -11.5412 -11.1303
upperneck 3.23465 -15.6607 9.05198
head 2.51714 -7.82702 3.93055
lclavicle -2.84997e-14 4.84009e-15 -3.38619e-30
lhumerus -69.6194 -20.5307 106.935
lradius 100.177 0 0
lwrist 51.1846 0 0
lhand -10.727 42.8153 0.0088737
lfingers 7.12502 0 0
lthumb 15.2828 72.218 0.00635898
rclavicle -2.84997e-14 4.84009e-15 -3.38619e-30
rhumerus 49.1575 -3.77894 -60.0739
rradius 20.6994 0 0
rwrist 18.842 0 0
rhand -21.5886 -33.3181 0.00436724
rfingers 7.12502 0 0
rthumb 4.80565 -63.2332 0.00600911
409
root 7.16779 13.7915 -34.2408 158.832 75.1925 152.852
lfemur 17.7999 -2.82224 -10.4646
ltibia 24.8324 0 0
lfoot -23.4064 33.154 0.00581135
ltoes -25.805 0 0
rfemur -65.7243 -15.8323 7.88448
rtibia 77.9303 0 0
rfoot -13.135 13.2392 -0.0360683
rtoes 10.1531 0 0
lowerback 8.71102 4.84306 -11.6754
upperback -2.48908 5.07638 -1.17546
thorax -8.52561 3.04161 4.41555
lowerneck 0.389535 -11.5645 -11.1986
upperneck 3.23565 -15.7002 9.1098
head 2.51467 -7.84775 3.95611
lclavicle -3.268e-14 2.17039e-15 -2.52267e-30
lhumerus -69.7862 -20.3599 106.804
lradius 100.205 0 0
lwrist 51.1586 0 0
lhand -10.4633 42.844 0.00657538
lfingers 7.12502 0 0
lthumb 15.5369 72.2303 0.00468797
rclavicle -3.268e-14 2.17039e-15 -2.52267e-30
rhumerus 49.1708 -3.77234 -59.9065
rradius 20.5043 0 0
rwrist 18.6751 0 0
rhand -21.6028 -33.2609 0.0030502
rfingers 7.12502 0 0
rthumb 4.79203 -63.1793 0.00424052
410
root 7.17705 13.7881 -34.249 159.047 75.1935 152.956
lfemur 18.2105 -2.73563 -10.3791
ltibia 24.3385 0 0
lfoot -23.3869 33.1581 0.00313047
ltoes -26.2633 0 0
rfemur -66.0013 -16.0907 8.08223
rtibia 78.5814 0 0
rfoot -13.6639 13.2208 -0.0194941
rtoes 10.1606 0 0
lowerback 8.56774 4.86409 -11.6836
upperback -2.52849 5.12082 -1.17397
thorax -8.49609 3.06414 4.41794
lowerneck 0.465694 -11.5956 -11.2775
upperneck 3.23116 -15.7517 9.18094
head 2.51055 -7.87456 3.98665
lclavicle -3.71335e-14 -6.34592e-16 -1.40646e-30
lhumerus -69.9859 -20.1681 106.646
lradius 100.238 0 0
lwrist 51.1295 0 0
lhand -10.1709 42.8777 0.0036479
lfingers 7.12502 0 0
lthumb 15.8188 72.2461 0.00258754
rclavicle -3.71335e-14 -6.34592e-16 -1.40646e-30
rhumerus 49.1948 -3.7858 -59.7218
rradius 20.2641 0 0
rwrist 18.5156 0 0
rhand -21.6321 -33.2015 0.00158842
rfingers 7.12502 0 0
rthumb 4.76387 -63.124 0.00223417
411
root 7.1863 13.7847 -34.2571 159.297 75.1858 153.078
lfemur 18.6608 -2.64898 -10.2808
ltibia 23.7931 0 0
lfoot -23.3599 33.1691 0
ltoes -26.7615 0 0
rfemur -66.3214 -16.3813 8.30861
rtibia 79.3225 0 0
rfoot -14.2636 13.2081 0
rtoes 10.1582 0 0
lowerback 8.40914 4.89058 -11.6943
upperback -2.57162 5.17394 -1.17575
thorax -8.46346 3.09095 4.41678
lowerneck 0.553975 -11.6349 -11.3675
upperneck 3.2208 -15.8159 9.26617
head 2.50468 -7.9078 4.02246
lclavicle -4.1869e-14 -3.57812e-15 0
lhumerus -70.2204 -19.9544 106.459
lradius 100.279 0 0
lwrist 51.0973 0 0
lhand -9.84827 42.9166 0
lfingers 7.12502 0 0
lthumb 16.1298 72.2654 0
rclavicle -4.1869e-14 -3.57812e-15 0
rhumerus 49.2299 -3.82067 -59.519
rradius 19.9761 0 0
rwrist 18.3642 0 0
rhand -21.6774 -33.1399 0
rfingers 7.12502 0 0
rthumb 4.72027 -63.0674 0
412
root 7.12532 13.7941 -34.2774 159.638 75.2002 153.467
lfemur 18.3824 -2.76343 -10.2704
ltibia 24.268 0 0
lfoot -23.3555 33.0729 -0.000691535
ltoes -26.8068 0 0
rfemur -66.1907 -16.2857 8.26814
rtibia 79.0877 0 0
rfoot -14.1239 13.1272 -0.00921253
rtoes 9.97003 0 0
lowerback 8.47545 4.86132 -11.6273
upperback -2.54313 5.13862 -1.13101
thorax -8.4629 3.07063 4.43374
lowerneck 0.592394 -11.6528 -11.3813
upperneck 3.18662 -15.8447 9.3222
head 2.49786 -7.92261 4.04272
lclavicle -4.13234e-14 -4.03451e-15 2.26219e-31
lhumerus -70.1043 -20.1862 106.446
lradius 100.283 0 0
lwrist 51.0281 0 0
lhand -9.78956 42.9124 -0.000139012
lfingers 7.12502 0 0
lthumb 16.1863 72.2566 -0.00014569
rclavicle -4.13234e-14 -4.03451e-15 2.26219e-31
rhumerus 49.0361 -3.76885 -59.2881
rradius 20.4108 0 0
rwrist 17.7055 0 0
rhand -21.4799 -33.2494 -0.0170729
rfingers 7.12502 0 0
rthumb 4.91073 -63.1657 -0.0149776
413
root 7.06435 13.8034 -34.2977 159.932 75.212 153.802
lfemur 18.1432 -2.86173 -10.2611
ltibia 24.6757 0 0
lfoot -23.3516 32.9904 -0.00127855
ltoes -26.8452 0 0
rfemur -66.0786 -16.2035 8.23353
rtibia 78.8861 0 0
rfoot -14.0038 13.0579 -0.0169565
rtoes 9.80847 0 0
lowerback 8.53241 4.83618 -11.5699
upperback -2.51868 5.10832 -1.09268
thorax -8.46245 3.05319 4.44825
lowerneck 0.625343 -11.6682 -11.3932
upperneck 3.15722 -15.8693 9.37031
head 2.49199 -7.93534 4.06009
lclavicle -4.085e-14 -4.42229e-15 4.14886e-31
lhumerus -70.0045 -20.3852 106.434
lradius 100.286 0 0
lwrist 50.9688 0 0
lhand -9.73942 42.9087 -0.000254662
lfingers 7.12502 0 0
lthumb 16.2346 72.249 -0.000263951
rclavicle -4.085e-14 -4.42229e-15 4.14886e-31
rhumerus 48.8702 -3.72397 -59.0903
rradius 20.7836 0 0
rwrist 17.1408 0 0
rhand -21.3106 -33.3434 -0.0314181
rfingers 7.12502 0 0
rthumb 5.07404 -63.2502 -0.0275656
414
root 7.00337 13.8128 -34.318 160.182 75.2215 154.087
lfemur 17.9386 -2.9458 -10.2529
ltibia 25.0239 0 0
lfoot -23.3482 32.9202 -0.00177374
ltoes -26.877 0 0
rfemur -65.983 -16.1331 8.204
rtibia 78.7136 0 0
rfoot -13.9009 12.999 -0.0234365
rtoes 9.67054 0 0
lowerback 8.58116 4.81474 -11.521
upperback -2.49779 5.08249 -1.0601
thorax -8.46211 3.03834 4.46053
lowerneck 0.653398 -11.6814 -11.4033
upperneck 3.13203 -15.8904 9.41135
head 2.48697 -7.94622 4.0749
lclavicle -4.04354e-14 -4.74485e-15 5.69032e-31
lhumerus -69.9193 -20.555 106.424
lradius 100.289 0 0
lwrist 50.9183 0 0
lhand -9.69716 42.9056 -0.000350392
lfingers 7.12502 0 0
lthumb 16.2753 72.2426 -0.000360206
rclavicle -4.04354e-14 -4.74485e-15 5.69032e-31
rhumerus 48.729 -3.68569 -58.9222
rradius 21.1011 0 0
rwrist 16.6603 0 0
rhand -21.1665 -33.4238 -0.0434228
rfingers 7.12502 0 0
rthumb 5.213 -63.3224 -0.0381015
415
root 6.94239 13.8222 -34.3383 160.394 75.229 154.33
lfemur 17.7639 -3.01757 -10.2458
ltibia 25.3203 0 0
lfoot -23.3452 32.8609 -0.00218902
ltoes -26.9025 0 0
rfemur -65.9017 -16.0729 8.17877
rtibia 78.5666 0 0
rfoot -13.8129 12.9494 -0.0288384
rtoes 9.55322 0 0
lowerback 8.62282 4.7966 -11.4797
upperback -2.47997 5.06063 -1.03261
thorax -8.46191 3.02577 4.4708
lowerneck 0.677131 -11.6927 -11.4117
upperneck 3.11048 -15.9084 9.44621
head 2.48267 -7.9555 4.08745
lclavicle -4.0066e-14 -5.00556e-15 6.91268e-31
lhumerus -69.8469 -20.6994 106.415
lradius 100.291 0 0
lwrist 50.8756 0 0
lhand -9.66211 42.903 -0.000429228
lfingers 7.12502 0 0
lthumb 16.3091 72.2371 -0.000439065
rclavicle -4.0066e-14 -5.00556e-15 6.91268e-31
rhumerus 48.6096 -3.65361 -58.7803
rradius 21.3702 0 0
rwrist 16.2545 0 0
rhand -21.0447 -33.4923 -0.0534363
rfingers 7.12502 0 0
rthumb 5.33043 -63.384 -0.0468912
416
root 6.88142 13.8315 -34.3586 160.573 75.2347 154.535
lfemur 17.6146 -3.07892 -10.2398
ltibia 25.5727 0 0
lfoot -23.3425 32.8111 -0.00253569
ltoes -26.922 0 0
rfemur -65.8327 -16.0215 8.15711
rtibia 78.4411 0 0
rfoot -13.7374 12.9079 -0.033332
rtoes 9.45351 0 0
lowerback 8.65853 4.78133 -11.4447
upperback -2.46477 5.04218 -1.00957
thorax -8.46184 3.01515 4.47927
lowerneck 0.697119 -11.7023 -11.4187
upperneck 3.09201 -15.9238 9.47576
head 2.47898 -7.96342 4.09805
lclavicle -3.97282e-14 -5.20778e-15 7.83872e-31
lhumerus -69.7857 -20.822 106.407
lradius 100.294 0 0
lwrist 50.8395 0 0
lhand -9.63357 42.9007 -0.000493864
lfingers 7.12502 0 0
lthumb 16.3365 72.2326 -0.00050447
rclavicle -3.97282e-14 -5.20778e-15 7.83872e-31
rhumerus 48.5092 -3.62724 -58.6611
rradius 21.5973 0 0
rwrist 15.9132 0 0
rhand -20.9423 -33.5505 -0.0617794
rfingers 7.12502 0 0
rthumb 5.42914 -63.4364 -0.0542151
